<svg width="32" height="28" viewBox="0 0 32 28" fill="none" xmlns="http://www.w3.org/2000/svg">
<path d="M0 12.5V26C0 27.1046 0.89543 28 2 28H12C13.1046 28 14 27.1046 14 26V16C14 14.8954 13.1046 14 12 14H7.5C6.67157 14 6 13.3284 6 12.5C6 9.03433 7.12602 6.69468 11.004 6.13145C12.0971 5.97269 13 5.10457 13 4V2C13 0.895431 12.0992 -0.0127027 10.9993 0.0887298C3.40467 0.789103 0 5.58059 0 12.5Z" fill="white"/>
<path d="M18 12.5V26C18 27.1046 18.8954 28 20 28H30C31.1046 28 32 27.1046 32 26V16C32 14.8954 31.1046 14 30 14H25.5C24.6716 14 24 13.3284 24 12.5C24 9.03433 25.126 6.69468 29.004 6.13145C30.0971 5.97269 31 5.10457 31 4V2C31 0.895431 30.0992 -0.0127027 28.9993 0.0887298C21.4047 0.789103 18 5.58059 18 12.5Z" fill="white"/>
</svg>
