<svg width="20" height="17" viewBox="0 0 20 17" fill="none" xmlns="http://www.w3.org/2000/svg">
<g clip-path="url(#clip0_52:987)">
<path d="M17.4078 4.52274C17.4196 4.69293 17.4196 4.86313 17.4196 5.03489C17.4196 10.2686 13.4353 16.3047 6.1498 16.3047V16.3016C3.99765 16.3047 1.89019 15.6882 0.0784302 14.5259C0.391371 14.5635 0.705881 14.5823 1.02118 14.5831C2.8047 14.5847 4.53725 13.9863 5.94039 12.8843C4.24549 12.8521 2.75921 11.747 2.24 10.1337C2.83372 10.2482 3.44549 10.2247 4.02823 10.0655C2.18039 9.69215 0.850979 8.06862 0.850979 6.18313C0.850979 6.16587 0.850979 6.1494 0.850979 6.13293C1.40157 6.4396 2.01804 6.60979 2.64863 6.62862C0.908234 5.46548 0.371763 3.15019 1.42274 1.33999C3.43372 3.8145 6.40078 5.31881 9.58588 5.47803C9.26667 4.10234 9.70274 2.66077 10.7318 1.69372C12.3271 0.194108 14.8361 0.270971 16.3357 1.86548C17.2227 1.69058 18.0729 1.36509 18.851 0.903912C18.5553 1.82077 17.9365 2.5996 17.1098 3.0945C17.8949 3.00195 18.662 2.79176 19.3843 2.47097C18.8525 3.26783 18.1827 3.96195 17.4078 4.52274Z" fill="white"/>
</g>
<defs>
<clipPath id="clip0_52:987">
<rect width="19.451" height="16" fill="white" transform="translate(0 0.5)"/>
</clipPath>
</defs>
</svg>
