<svg width="12" height="11" viewBox="0 0 12 11" fill="none" xmlns="http://www.w3.org/2000/svg">
<path d="M5.49408 0.454247C5.58578 0.268435 5.85074 0.268435 5.94245 0.454246L7.42345 3.45509C7.45987 3.52887 7.53026 3.58002 7.61168 3.59185L10.9233 4.07306C11.1284 4.10285 11.2102 4.35485 11.0619 4.49948L8.66555 6.83531C8.60663 6.89274 8.57974 6.97549 8.59365 7.05659L9.15934 10.3548C9.19437 10.5591 8.98001 10.7148 8.79661 10.6184L5.8346 9.06116C5.76177 9.02287 5.67476 9.02287 5.60193 9.06116L2.63992 10.6184C2.45651 10.7148 2.24215 10.5591 2.27718 10.3548L2.84287 7.05659C2.85678 6.97549 2.8299 6.89274 2.77098 6.83531L0.37466 4.49948C0.226281 4.35485 0.308158 4.10285 0.513214 4.07306L3.82484 3.59185C3.90627 3.58002 3.97666 3.52887 4.01307 3.45509L5.49408 0.454247Z" fill="white"/>
</svg>
