<?xml version="1.0" encoding="utf-8"?>
<!-- Generator: Adobe Illustrator 21.1.0, SVG Export Plug-In . SVG Version: 6.00 Build 0)  -->
<svg version="1.1" id="Layer_1" xmlns="http://www.w3.org/2000/svg" xmlns:xlink="http://www.w3.org/1999/xlink" x="0px" y="0px"
	 viewBox="0 0 1080 1080" style="enable-background:new 0 0 1080 1080;" xml:space="preserve">
<style type="text/css">
	.st0{fill:#FFFFFF;}
	.st1{fill:#C9C9C9;}
</style>
<g>
	<g>
		<polygon class="st0" points="898.6,573.7 539.8,1015.3 181,573.7 539.8,784.5 		"/>
		<path class="st0" d="M181,64.7v425l358.8,203.1l358.8-203.1v-425H181z M409,447.8H235.6V166.3H409V447.8z M626.5,447.8H453.1
			V166.3h173.3V447.8z M844,447.8H670.6V166.3H844V447.8z"/>
		<path class="st1" d="M545.2,64.7v101.6h81.2v281.5h-81.2v242l353.4-200.1v-425H545.2z M844,447.8H670.6V166.3H844V447.8z"/>
	</g>
	<polygon class="st1" points="539.8,784.8 539.8,1015.3 899,573.6 	"/>
</g>
</svg>
