<svg width="18" height="19" viewBox="0 0 18 19" fill="none" xmlns="http://www.w3.org/2000/svg">
<path d="M16.7143 0.375H1.24554C0.5625 0.375 0 0.977679 0 1.70089V17.0893C0 17.8125 0.5625 18.375 1.24554 18.375H16.7143C17.3973 18.375 18 17.8125 18 17.0893V1.70089C18 0.977679 17.3973 0.375 16.7143 0.375ZM5.42411 15.8036H2.77232V7.24554H5.42411V15.8036ZM4.09821 6.04018C3.21429 6.04018 2.53125 5.35714 2.53125 4.51339C2.53125 3.66964 3.21429 2.94643 4.09821 2.94643C4.94196 2.94643 5.625 3.66964 5.625 4.51339C5.625 5.35714 4.94196 6.04018 4.09821 6.04018ZM15.4286 15.8036H12.7366V11.625C12.7366 10.6607 12.7366 9.375 11.3705 9.375C9.96429 9.375 9.76339 10.4598 9.76339 11.5848V15.8036H7.11161V7.24554H9.64286V8.41071H9.68304C10.0446 7.72768 10.9286 7.00446 12.2143 7.00446C14.9063 7.00446 15.4286 8.8125 15.4286 11.1027V15.8036Z" fill="white"/>
</svg>
