<svg id="Layer_1" data-name="Layer 1" xmlns="http://www.w3.org/2000/svg" viewBox="0 0 500 116.04"><defs><style>.cls-1{fill:#fff;}.cls-2{fill:#f13651;}</style></defs><title>1</title><path class="cls-1" d="M75.75,35.39l-12,8.46C57,35.56,49.12,30.44,38.24,32.36c-10.22,1.8-18,10.84-18.73,21.77-.8,12.37,5.91,22.57,16.88,25.64,10.13,2.84,22.2-1.43,26.06-11.47,2.91-7.59,2.57-7.4,2.57-7.4s14.47.19,16.23.29c-1.48,17.78-17,33-35,34.54C26.5,97.41,8.75,85,4.18,66.22-.48,47.06,9,27.57,26.66,19.88S64.93,18.55,75.75,35.39Z"/><path class="cls-1" d="M240.19,82.73V94.14H224.64V17.59c11.63.59,23.47-.15,34.72,2.09,15.25,3,24.43,18.2,22.71,33.92-1.75,16-14.2,28.25-29.77,29.1C248.57,82.91,244.82,82.73,240.19,82.73Zm.36-50.05V68.21c8.73.48,17.29,1.38,22.53-7.23,4.13-6.79,4-14,0-20.88C258,31.25,249.45,32.09,240.55,32.68Z"/><path class="cls-1" d="M377.3,18.35h14.25V94.84c-3.35-.26-13.88-.24-13.88-.24V91c-8.61,4.4-23.79,4.94-31.54-4a28.37,28.37,0,0,1-1.93-34.3C351.62,42,362,39.53,377.3,45.1Zm.53,50.41c0-7.3-4.64-12.38-11.45-12.5a12.18,12.18,0,0,0-12.45,12.39,12.46,12.46,0,0,0,12.33,12.64C373,81.2,377.81,76,377.83,68.77Z"/><path class="cls-1" d="M456.43,91c-8.86,4.56-25.46,4.82-33.15-4.45a28.24,28.24,0,0,1-.4-35.26c7.89-9.87,21.45-10.26,33.55-4.44m-12.9,9.4a12.2,12.2,0,0,0-12,12.8,12.43,12.43,0,0,0,12.16,12.22c6.91,0,11.88-5.46,11.73-12.94C455.25,61.11,450.43,56.2,443.53,56.27Z"/><path class="cls-1" d="M335,84.72a28.42,28.42,0,0,1-33.73,8.67,27,27,0,0,1-16.61-28.7c1.44-11.3,11-21.09,22.16-22.63,13.53-1.87,24.44,4.4,30.19,17.79L309.44,79.7C312,83.86,321,82,325.2,77.32ZM318.51,58.5c-6.12-3.13-10.87-3.06-15.07.59-3.58,3.11-5.14,7.1-3.71,12.88Z"/><path class="cls-1" d="M84.89,68.56a26.63,26.63,0,0,1,26.82-26.83c15.05,0,27.43,12.44,27.24,27.28-.19,14.5-12.73,26.73-27.38,26.69A27,27,0,0,1,84.89,68.56Zm26.64-12.29c-7,.08-12.07,5.45-12,12.69A12.23,12.23,0,1,0,124,68.45C123.87,61.25,118.68,56.18,111.52,56.27Z"/><path class="cls-1" d="M177.18,45.67c.81.15,3.55-1,4.3-1.44,13.44-7,32.43-.41,34.61,21.09,1,9.41.16,19,.16,28.87H202.07c0-8.65.13-17.14-.05-25.62-.1-4.74-1.29-9.9-6.3-11.1a19.13,19.13,0,0,0-12.09,1.58c-4.06,2.13-4.33,6.9-4.82,10.73-.77,6.06-.4,22.33-.51,24.51"/><path class="cls-1" d="M143.78,43.05h13.84v51.1H143.78Z"/><path class="cls-1" d="M398.41,43h13.77V94.16H398.41Z"/><path class="cls-1" d="M455.69,43h13.77V94.16H455.69Z"/><path class="cls-1" d="M164.52,43h13.77V94.16H164.52Z"/><path class="cls-1" d="M159.14,25.21c0,4.32-4,8.25-8.55,8.27a8.52,8.52,0,0,1-8.35-8.36,8.62,8.62,0,0,1,8.16-7.95C154.89,17.07,159.12,21,159.14,25.21Z"/><path class="cls-1" d="M405.42,17.19a8.26,8.26,0,0,1,8.3,8.32c-.13,4.45-4.22,8.38-8.7,7.9-4.64-.5-7.76-3.1-8.11-8C396.61,21.25,401,17.14,405.42,17.19Z"/><rect class="cls-2" x="476.71" y="79.09" width="20.29" height="20.29"/></svg>