<svg id="Layer_1" data-name="Layer 1" xmlns="http://www.w3.org/2000/svg" viewBox="0 0 502.95 75.88"><defs><style>.cls-1{fill:#0099fd;}.cls-2,.cls-3{fill:#fff;}.cls-3{stroke:#fff;stroke-linejoin:round;stroke-width:1.94px;}</style></defs><title>1</title><polygon class="cls-1" points="0 0 0 57.47 17 75.88 75.88 75.88 75.88 0 0 0"/><path class="cls-2" d="M56,41.08c-.83-1.37-.85-1.46.11-2.75a12.5,12.5,0,0,0-7-19.66c-.58-.15-.73-.34-.61-.94.46-2.22.85-4.46,1.29-6.69.1-.5,0-.68-.52-.76a26.81,26.81,0,0,1-2.74-.52c-.65-.17-.84,0-.95.66-.33,1.94-.72,3.87-1.11,5.81-.23,1.18-.61,1.43-1.76,1.24-.62-.1-1.23-.28-1.86-.34s-.71-.35-.59-.92c.45-2.2.82-4.41,1.28-6.61.13-.63,0-.81-.63-.89a22.62,22.62,0,0,1-2.66-.51c-.63-.16-.79.06-.89.64-.35,2.05-.75,4.09-1.14,6.14-.19,1-.46,1.19-1.48,1-1.37-.26-2.74-.54-4.11-.8-2.07-.39-4.15-.75-6.22-1.15-.5-.09-.73,0-.83.56Q23,18,22.34,21.36c-.12.59.07.77.61.84.76.1,1.5.33,2.26.4s1,.49.84,1.26c-.73,3.73-1.43,7.47-2.14,11.21h0q-1.07,5.65-2.14,11.3c-.19,1-.37,1.1-1.33.92-.7-.13-1.41-.24-2.09-.41s-.81-.06-.92.59c-.38,2.27-.81,4.53-1.28,6.78-.13.61,0,.79.62.9,3.56.64,7.1,1.35,10.66,2,.69.12.8.35.66,1-.46,2.17-.83,4.36-1.26,6.53-.1.51,0,.74.54.82a26.26,26.26,0,0,1,2.74.52c.59.15.81,0,.91-.61.36-2.13.83-4.25,1.17-6.38.13-.78.42-.91,1.12-.73a16.36,16.36,0,0,0,2.34.44c.68.08.83.33.69,1-.45,2.14-.81,4.31-1.25,6.45-.13.62,0,.82.63.9a22.58,22.58,0,0,1,2.58.49c.59.15.81,0,.91-.61.38-2.24.85-4.46,1.24-6.7.09-.54.28-.66.81-.55a16.67,16.67,0,0,0,4.22.54,12.26,12.26,0,0,0,10.89-6.48C58.83,49.51,58.54,45.23,56,41.08ZM35.49,24.59c1.9.38,3.82.73,5.73,1.09v0c1.8.34,3.61.67,5.4,1a4.12,4.12,0,1,1-1.32,8.12c-2.63-.38-5.23-.92-7.84-1.39-1.21-.22-2.41-.51-3.63-.68-.68-.1-.75-.37-.63-1,.44-2.17.87-4.35,1.23-6.54C34.56,24.55,34.87,24.46,35.49,24.59Zm14,23.92a4.18,4.18,0,0,1-5,3.24l-6.78-1.28h0c-2.31-.44-4.62-.9-6.94-1.3-.66-.11-.76-.35-.64-1,.44-2.14.87-4.29,1.21-6.46.12-.76.45-.85,1.09-.72,3.63.7,7.26,1.38,10.89,2.06,1,.18,1.94.34,2.9.57A4.2,4.2,0,0,1,49.48,48.51Z"/><path class="cls-3" d="M138.33,27.2a10.49,10.49,0,0,1-6.71,10c6,1.84,8.26,8.26,8.26,11.5,0,11.5-8.62,15.19-19.31,15.19H96.09V12.24h24.47C130.73,12.24,138.33,16.8,138.33,27.2Zm-32.65,5.75h14.89c6.12,0,8.11-2.58,8.11-5.53,0-2.36-1.92-6.34-8.11-6.34H105.67Zm0,21.82h14.89c4,0,9.66-1.33,9.66-6.19,0-4.64-5.68-7.08-9.66-7.08H105.67Z"/><path class="cls-3" d="M146.8,63.83V12.24h9.66v51.6Z"/><path class="cls-3" d="M181.29,21.08H164.93V12.24h42.46v8.85H191V63.83h-9.73Z"/><path class="cls-3" d="M258.76,57.35A27.19,27.19,0,0,1,239.15,65C220,65,211.88,51.82,211.81,38.4s8.7-27.2,27.35-27.2a26.62,26.62,0,0,1,18.94,7.89l-6.49,6.27a17.72,17.72,0,0,0-12.46-4.86c-12.46,0-17.84,9.29-17.76,17.91s5,17.47,17.76,17.47a19,19,0,0,0,13-5.23Z"/><path class="cls-3" d="M314.92,38.33C314.78,51.67,306.59,65,288.46,65S261.92,52,261.92,38.4s8.7-27.2,26.54-27.2S315.07,24.84,314.92,38.33Zm-43.42.22c.22,8.48,4.79,17.54,17,17.54S305.19,47,305.34,38.48c.15-8.7-4.72-18.43-16.88-18.43S271.29,29.85,271.51,38.55Z"/><path class="cls-3" d="M322.14,63.83V12.24h9.66v51.6Z"/><path class="cls-3" d="M374.84,12.16h9.73V63.83h-6v.07L351.4,29V63.83h-9.73V12.24h7.89l25.28,32Z"/><path class="cls-3" d="M393.56,63.83V12.24h9.66v51.6Z"/><path class="cls-3" d="M445.67,24.69c-1.77-2.95-6.63-5.75-12.24-5.75-7.22,0-10.69,3-10.69,6.85,0,4.5,5.31,5.75,11.5,6.49C445,33.61,455,36.41,455,48.72c0,11.5-10.17,16.44-21.67,16.44-10.54,0-18.65-3.24-22.48-12.68l8.11-4.2c2.28,5.68,8.26,8.18,14.52,8.18s11.87-2.14,11.87-7.74c0-4.87-5.09-6.86-11.94-7.59-10.54-1.25-20.27-4.05-20.27-15.63,0-10.61,10.47-15,20-15,8,0,16.36,2.29,20.27,10.25Z"/><path class="cls-3" d="M475.89,21.08H459.53V12.24H502v8.85H485.62V63.83h-9.73Z"/></svg>