<svg id="Layer_1" data-name="Layer 1" xmlns="http://www.w3.org/2000/svg" viewBox="0 0 500 116.04"><defs><style>.cls-1{fill:#fff;}</style></defs><title>1</title><path class="cls-1" d="M493.6,1.34h0A14.3,14.3,0,0,0,492,1.2c-3.66,0-7.3,2.15-7.3,7.64-2.17,27.56-4.44,55.2-8.16,81.5l0,0h0a9.87,9.87,0,0,1,5.68.89v0c4.23-26.71,14.26-66.72,16.83-78A25.51,25.51,0,0,0,500,8.36C500,4.32,497.44,2,493.6,1.34Z"/><path class="cls-1" d="M243.55,12.21a32.19,32.19,0,0,1-15.26,0h0q1.11,21.35,1.19,42.74c-17.08.4-34.14.43-51.19,0h0q.08-21.39,1.19-42.74h0a32.19,32.19,0,0,1-15.26,0h0c1.33,30.58,1.21,61.09,0,91.57h0a32.17,32.17,0,0,1,15.22,0l0,0,0,0q-1.13-21.31-1.19-42.59h0q25.6-.36,51.19,0-.07,21.29-1.19,42.61l.05,0,0,0a32.17,32.17,0,0,1,15.22,0h0c-1.21-30.48-1.33-61,0-91.57h0Z"/><path class="cls-1" d="M119.42,12.18h0a15.11,15.11,0,0,1-10.63,0h0C96.49,43,82.33,77.82,69.59,103.78h0l.06,0h0l.09,0,0,0a31.1,31.1,0,0,1,15,0l0,0h0c3.25-8.2,6.94-17.5,10.64-26.85h0c12.51-.36,25-.4,37.54,0h0c3.56,8.95,7.13,17.91,10.61,26.87h0a31.38,31.38,0,0,1,15.23,0h0C149.54,86.63,131.13,41.8,119.42,12.18ZM114.09,28c5.06,14.11,10.62,28.32,16.28,42.57h0q-16.24.56-32.47,0h0C104.48,53.73,110.77,37.52,114.09,28Z"/><path class="cls-1" d="M52.2,66.54h0C64.92,44.22,85.92,7.79,91.69,0h0A31.54,31.54,0,0,1,76.31,0h0C72,8.08,56,34.23,45.78,51,35.46,33.87,23.23,14.12,15.26,0h0C8.95,1.35,6.3,1.43,0,0H0C12.51,18.85,32.56,54.75,39.37,66.54l-.92,49.14a56.41,56.41,0,0,1,7.34-.74,49.13,49.13,0,0,1,7.31.74h0Z"/><path class="cls-1" d="M297.32,11C264.94,11,248,31.5,248,58.11,248,87.24,266.5,105,297.27,105c33.27,0,49.52-20,49.52-46.59C346.79,28.8,327.38,11,297.32,11Zm-.79,5.55h.85c19.8,0,34.34,13.49,34.34,41.66s-14.52,41.63-34.3,41.63c-21.58,0-34.26-15.46-34.26-41.55C263.15,28.76,278.78,16.89,296.53,16.53Z"/><path class="cls-1" d="M409.09,5.46h0c-32.24,0-56.89,18.31-56.89,52.35,0,28,16.39,52.73,57.15,52.73,34.51,0,57-19,57-52.23C466.4,26.94,445.38,5.46,409.09,5.46ZM367.45,57.61c0-35.85,22-46.45,41.68-46.45h0c24.21,0,42,14.71,42,47.15,0,35.26-21.57,46.7-42,46.7C387.34,105,367.45,92.19,367.45,57.61Z"/><path class="cls-1" d="M476.09,101.42c-4.8,0-7.2,3.66-7.2,7.6,0,4.64,3.71,7,8.3,7,3.32,0,6.93-2,6.93-7.48C484.12,104.17,480.68,101.42,476.09,101.42Z"/></svg>