<svg id="Layer_1" data-name="Layer 1" xmlns="http://www.w3.org/2000/svg" viewBox="0 0 500 116.04"><defs><style>.cls-1{fill:#fff;}.cls-2{fill:#faa61a;}</style></defs><title>1</title><path class="cls-1" d="M40.2,15.74,55.9,7.62v79H40.2Z"/><path class="cls-1" d="M112.26,40.71A22.32,22.32,0,0,1,115,51.77V86.67H100.18V56.52q0-5.87-2.77-9t-7.85-3.16a11.48,11.48,0,0,0-8.3,3.22q-3.33,3.22-3.33,9.09v30H63.25V40L77.59,31.9v6.44a16.43,16.43,0,0,1,6.89-6,21.63,21.63,0,0,1,9.15-1.92,22.41,22.41,0,0,1,11,2.71A19.15,19.15,0,0,1,112.26,40.71Z"/><path class="cls-1" d="M113.63,31.9h16l14.23,39.19L158.12,31.9h15.58L152.25,86.67H135.31Z"/><path class="cls-1" d="M215.43,37.27a32.67,32.67,0,0,1,8.05,13.11q.81,2.35,1.41,4.77L188.17,67.83q2.95,5.08,7.37,6.47a15.1,15.1,0,0,0,9.66-.41,20.61,20.61,0,0,0,6.33-3.62,21.85,21.85,0,0,0,5-5.79l11.32,6.13q-5.92,10.89-19.37,15.53a29.48,29.48,0,0,1-15.06,1.38,25.7,25.7,0,0,1-12.8-6.27,30.26,30.26,0,0,1-8.3-13,31.62,31.62,0,0,1-1.63-15.45A25.55,25.55,0,0,1,176.58,40,28,28,0,0,1,189,31.83a26.42,26.42,0,0,1,14.26-1.1A24.49,24.49,0,0,1,215.43,37.27ZM185,58.3l22.84-7.89a14.41,14.41,0,0,0-6.5-6.36,11,11,0,0,0-8.29-.12,11.77,11.77,0,0,0-6.85,5.41A13.71,13.71,0,0,0,185,58.3Z"/><path class="cls-1" d="M253,42.74a12.39,12.39,0,0,0-6.32,1.3,4.07,4.07,0,0,0-2.15,3.67,3.23,3.23,0,0,0,2.2,3.11,25.92,25.92,0,0,0,6.72,1.52l4.86.79Q276.82,56,276.82,69.5a16.15,16.15,0,0,1-6.66,13.61q-6.66,5-18.52,5a56.41,56.41,0,0,1-12.93-1.53,31.46,31.46,0,0,1-11.35-5l5.76-11.18a31.7,31.7,0,0,0,8.36,4,34.43,34.43,0,0,0,10.28,1.41q5.08,0,7.62-1.35a4.2,4.2,0,0,0,2.54-3.84,3.52,3.52,0,0,0-2.2-3.11,22,22,0,0,0-6.94-1.86l-4.4-.68q-19-2.6-19-16.6,0-8.36,6.15-13.1t17-4.74a53.68,53.68,0,0,1,12,1.24,48.45,48.45,0,0,1,10.84,4l-5,11.41A45.71,45.71,0,0,0,262,44,34.22,34.22,0,0,0,253,42.74Z"/><path class="cls-1" d="M297,65q0,4.86,2.2,7.12a7.9,7.9,0,0,0,5.93,2.26q4.4,0,10.28-3.61l5.42,11.52a35.46,35.46,0,0,1-8.36,4.35,28.89,28.89,0,0,1-9.71,1.53q-10.05,0-15.3-5.65t-5.25-16.26V15.64H297V31.9h19.76L308.69,45H297Z"/><path class="cls-1" d="M324.49,31.9l14.68-5.41V86.67H324.49Z"/><path class="cls-1" d="M394.29,40.71A22.32,22.32,0,0,1,397,51.77V86.67H382.21V56.52q0-5.87-2.77-9t-7.85-3.16a11.48,11.48,0,0,0-8.3,3.22Q360,50.76,360,56.63v30H345.28V31.9h14.34v6.44a16.43,16.43,0,0,1,6.89-6,21.63,21.63,0,0,1,9.15-1.92,22.41,22.41,0,0,1,11,2.71A19.15,19.15,0,0,1,394.29,40.71Z"/><path class="cls-1" d="M459.8,31.9V82.15q0,13.1-8,20.67t-21.63,7.57a50.58,50.58,0,0,1-13-1.69,32.63,32.63,0,0,1-10.9-5l5.31-12a32.1,32.1,0,0,0,18.07,5.53q7,0,11.29-3.78t4.29-10.78V78.88q-6,7.45-16.83,7.45a23.78,23.78,0,0,1-12.48-3.5,25.24,25.24,0,0,1-9.26-9.88,30.05,30.05,0,0,1-3.44-14.51,30.06,30.06,0,0,1,3.44-14.51A25.67,25.67,0,0,1,415.92,34a23.5,23.5,0,0,1,12.48-3.56q10.84,0,16.94,7.57ZM418.35,58.44a14.55,14.55,0,0,0,3.78,10.22,14,14,0,0,0,19.82.06,14.37,14.37,0,0,0,3.84-10.28A14.57,14.57,0,0,0,442,48.1a14,14,0,0,0-19.82,0A14.7,14.7,0,0,0,418.35,58.44Z"/><polygon class="cls-2" points="339.17 20.34 324.49 25.75 324.49 11.07 339.17 5.66 339.17 20.34"/></svg>