<svg id="Layer_1" data-name="Layer 1" xmlns="http://www.w3.org/2000/svg" xmlns:xlink="http://www.w3.org/1999/xlink" viewBox="0 0 547.46 176.47"><defs><style>.cls-1{fill:url(#linear-gradient);}.cls-2{fill:#aedde6;}.cls-3{fill:#fff;}</style><linearGradient id="linear-gradient" x1="43.06" y1="45.15" x2="131.6" y2="159.52" gradientUnits="userSpaceOnUse"><stop offset="0" stop-color="#00b7c0"/><stop offset="0.51" stop-color="#00aec1"/><stop offset="0.99" stop-color="#00a0c3"/></linearGradient></defs><title>1</title><polygon class="cls-1" points="0 44.12 0 132.35 76.42 176.47 152.83 132.35 152.83 44.12 76.42 0 0 44.12"/><polyline class="cls-2" points="60.65 46.71 60.65 129.54 92.18 129.54 92.18 46.71"/><polygon class="cls-3" points="152.83 44.12 92.18 129.54 60.65 129.54 130.61 31.29 152.83 44.12"/><polygon class="cls-3" points="0 132.13 60.65 46.71 92.18 46.71 22.22 144.96 0 132.13"/><path class="cls-3" d="M181.23,112.24V57.13h11.45L206.9,80.76a151.35,151.35,0,0,1,9.4,18.48h.16c-.65-7.36-.9-14.47-.9-22.89V57.13h9.32v55.11H214.51L200.12,88a191.77,191.77,0,0,1-9.89-19l-.25.08c.41,7.11.49,14.39.49,23.47v19.7Z"/><path class="cls-3" d="M272.07,87.79H251.3V104h23.22v8.26H241.25V57.13H273.3v8.26h-22V79.61h20.77Z"/><path class="cls-3" d="M297.67,112.24,284.18,57.13h10.71l5.23,25c1.39,6.7,2.7,13.73,3.6,19.21h.16c.9-5.8,2.45-12.35,4-19.29l6-24.94H324.4l5.48,25.35c1.39,6.54,2.53,12.67,3.35,18.64h.16c1-6.05,2.29-12.35,3.76-19l5.72-24.94H353.1l-14.8,55.11H327.51l-5.72-25.92a157.16,157.16,0,0,1-3-17.5h-.16c-1,5.89-2,11.2-3.68,17.5l-6.38,25.92Z"/><path class="cls-3" d="M364,101.28a27.83,27.83,0,0,0,13.33,3.52c6.46,0,10.06-3,10.06-7.52,0-4.17-2.78-6.62-9.81-9.16-9.08-3.27-14.88-8.09-14.88-16,0-9,7.52-15.86,19.46-15.86A29.11,29.11,0,0,1,395.38,59l-2.45,8.1a23.35,23.35,0,0,0-11-2.62c-6.38,0-9.16,3.43-9.16,6.62,0,4.25,3.19,6.21,10.55,9.08,9.57,3.6,14.23,8.42,14.23,16.35,0,8.83-6.7,16.52-20.93,16.52-5.8,0-11.86-1.63-14.88-3.43Z"/><path class="cls-3" d="M411.4,57.86A84,84,0,0,1,426,56.72c7.44,0,12,.9,15.78,3.52a11.62,11.62,0,0,1,5.72,10.3c0,5.07-3.19,9.73-9.16,11.94v.16c5.81,1.47,11.12,6.05,11.12,13.66a14.3,14.3,0,0,1-5.31,11.36c-3.93,3.43-10.38,5.15-20.44,5.15a97.69,97.69,0,0,1-12.35-.74Zm10,21.75h5.15c6.95,0,10.87-3.27,10.87-7.93,0-5.15-3.92-7.52-10.3-7.52a27.47,27.47,0,0,0-5.72.41Zm0,25.35a43.91,43.91,0,0,0,5.31.25c6.46,0,12.18-2.45,12.18-9.24,0-6.38-5.56-9-12.51-9h-5Z"/><path class="cls-3" d="M472.64,65.55h-15.7V57.13h41.62v8.42H482.7v46.69H472.64Z"/><path class="cls-3" d="M547,110.6c-2.37,1.23-7.6,2.45-14.23,2.45-17.5,0-28.13-11-28.13-27.72,0-18.15,12.59-29.11,29.44-29.11,6.62,0,11.36,1.39,13.41,2.45l-2.21,8a26.81,26.81,0,0,0-10.79-2.13c-11.2,0-19.3,7-19.3,20.28,0,12.1,7.11,19.87,19.21,19.87a28.14,28.14,0,0,0,11-2Z"/></svg>