<svg id="Layer_1" data-name="Layer 1" xmlns="http://www.w3.org/2000/svg" viewBox="0 0 500 116.04"><defs><style>.cls-1{fill:#fff;}</style></defs><title>1</title><path class="cls-1" d="M439,85.33h17.26c.66,2.18,2.94,4.36,7.21,4.36,5.78,0,7.78-3.61,7.78-8.92V77h-.38a15.35,15.35,0,0,1-12.23,5.79c-11,0-20.58-8.16-20.58-24.09,0-14.6,7.87-26,19.72-26,6.83,0,11,2.75,13.75,7.11h.28V34.22h17.07V78.41c0,8.15-2.84,14.51-7.11,18.3-4.46,4-10.81,5.59-18,5.59-13.56,0-23-5.59-24.75-17m33-27.5c0-6.35-3-11.47-8.25-11.47-5,0-8.25,4.55-8.25,11.47s3.22,11.76,8.25,11.76c5.22,0,8.25-5,8.25-11.76M419,42.94h.28c3.7-7.11,8.53-9.77,14.7-9.77a6.9,6.9,0,0,1,2.94.47V49.3h-.38C426,47.4,419.8,52.43,419.8,63.9V85.24H401.88v-51H419ZM11.16,13.74H46.25c6.64,0,11.76,1.61,15.36,4.55,4.07,3.32,6.26,8.25,6.26,14.13,0,6.83-2.75,11.1-8.44,13.75v.29c7.4,2.46,11.66,9.1,11.66,17.16,0,7.68-2.94,13.65-7.78,17.26-4.08,2.94-9.38,4.36-16.4,4.36H11.16ZM44.54,69.4c4.27,0,7.39-2.56,7.39-7.3,0-4.93-3.41-7.3-7.49-7.3H30.6V69.4Zm-1.8-27.69c3.79,0,6.54-2.08,6.54-6.26s-2.84-6.07-6.64-6.07h-12V41.71H42.74Zm31.58-28h18.4v71.5H74.32ZM96.23,59.82c0-16.12,10.43-27,26.55-27s26.36,10.9,26.36,27-10.24,27-26.36,27S96.23,76,96.23,59.82m34.7,0c0-8.91-2.85-14.51-8.35-14.51s-8.15,5.59-8.15,14.51,2.65,14.6,8.15,14.6,8.35-5.59,8.35-14.6m20.3,0c0-16.12,10.43-27,26.55-27s26.36,10.9,26.36,27-10.24,27-26.36,27-26.55-10.81-26.55-27m34.7,0c0-8.91-2.85-14.51-8.35-14.51s-8.15,5.59-8.15,14.51,2.65,14.6,8.15,14.6,8.35-5.59,8.35-14.6m21.72-25.6h17.07V41.9H225c3.41-6,8.06-9.2,15.36-9.2a14.25,14.25,0,0,1,13.75,8.82h.28c4.17-6.73,9.58-8.82,15.83-8.82,11.85,0,17,8.72,17,20.48V85.23H269.29V56.41c0-5.22-1.61-8.63-6.16-8.63S256.4,52,256.4,57.45V85.23H238.48V56.41c0-5.22-1.61-8.63-6.16-8.63s-6.73,4.17-6.73,9.67V85.23H207.66ZM309.13,78.6h-.19v6.64H291.88V13.74H309.8V39.53h.28c3.41-4.46,8-6.83,14.51-6.83,12.8,0,20.2,11.57,20.2,26.93,0,17.35-8.06,27.31-21.33,27.31a16.12,16.12,0,0,1-14.32-8.34m17.45-19.15c0-8.25-3-13.56-8.44-13.56s-9,5.31-9,13.56,3.51,13.56,9,13.56,8.44-5.31,8.44-13.56m20.49.19c0-15.93,10.53-27,25.79-27,7.59,0,13.47,2.37,17.92,6.64,5.88,5.69,8.54,14.6,8.34,25.13H364.9c.76,6.35,3.79,9.58,9.2,9.58a6.88,6.88,0,0,0,7-4.84h17.25c-3,11.66-12,17.54-24.84,17.54-15.83,0-26.46-10.71-26.46-27m17.83-5.31h16.31c-.29-6.16-3.7-9.39-8-9.39-4.93,0-7.68,3.51-8.34,9.39"/></svg>