<svg id="Layer_1" data-name="Layer 1" xmlns="http://www.w3.org/2000/svg" viewBox="0 0 500 116.04"><defs><style>.cls-1{fill:#fff;}.cls-2{fill:#00ac4e;}</style></defs><title>1</title><path class="cls-1" d="M34.16,35.21H45.92L46.26,65,69.72,35.21H81.59l-10.74,53H59.41l6.41-31.64L40.57,88.18h-6l-.28-33-19.75,33H2.46Z"/><path class="cls-1" d="M116.7,58.45l1.64-4.4H129.9L117.1,88.18H105.63l1.32-3.55q-6.8,4.2-13.12,4.2-6.6,0-10.08-4.4T81.65,73.29A24.94,24.94,0,0,1,90,59.13a21.63,21.63,0,0,1,14.49-5.81A17,17,0,0,1,116.7,58.45Zm-23.19,14a6.34,6.34,0,0,0,1,5.57q1.74,2.1,5.41,2.1a12.27,12.27,0,0,0,7.88-2.9A12.12,12.12,0,0,0,112.29,70a6,6,0,0,0-1.39-5.57,7.35,7.35,0,0,0-5.73-2.26,11,11,0,0,0-7.45,2.9A12.89,12.89,0,0,0,93.51,72.4Z"/><path class="cls-1" d="M162.29,54.29l-4.64,9.2a10.43,10.43,0,0,0-4.15-.69q-8,0-11.36,9.12L136,88.18H124.47L137.37,54H148.9L148,56.46a20,20,0,0,1,10.07-3.22A9,9,0,0,1,162.29,54.29Z"/><path class="cls-1" d="M177.46,31.26h11.48L175.76,66.51,189.85,54H203L183.69,71.31l8.38,16.87H180.13L172.86,74l-5.21,14.18H156.08Z"/><path class="cls-1" d="M238.4,73.45H211q-.41,7.38,7.08,7.38a14.07,14.07,0,0,0,9.65-4.16l7.46,3.63q-9.73,8.51-20.24,8.51-8.53,0-13-4.64t-3-11.86q1.59-7.82,8.91-13.41a25.75,25.75,0,0,1,15.95-5.59q8.67,0,12.77,5T238.4,73.45Zm-25.46-6.86h16.3q.32-5.53-6.65-5.53Q216.6,61.07,212.94,66.59Z"/><path class="cls-1" d="M259.36,41.83h11.47L266.27,54h5.36L268,63.89h-5.2l-9.26,24.28H242.06l9-24.28H246.7L250.35,54h4.45Z"/><polygon class="cls-2" points="345.54 29.79 320.79 67.44 321.36 35.21 314.33 35.21 293.09 67.2 293.77 35.21 282.09 35.21 280.87 88.18 290.5 88.18 310.49 57.92 309.85 88.18 319.24 88.18 357.85 29.79 345.54 29.79"/><path class="cls-2" d="M376.32,58.45,378,54h11.57L376.72,88.18H365.25l1.32-3.55q-6.8,4.2-13.12,4.2-6.6,0-10.08-4.4t-2.11-11.13a24.94,24.94,0,0,1,8.36-14.16,21.63,21.63,0,0,1,14.49-5.81A17,17,0,0,1,376.32,58.45Zm-23.19,14a6.34,6.34,0,0,0,1,5.57q1.74,2.1,5.41,2.1a12.27,12.27,0,0,0,7.88-2.9A12.12,12.12,0,0,0,371.92,70a6,6,0,0,0-1.39-5.57,7.35,7.35,0,0,0-5.73-2.26,11,11,0,0,0-7.45,2.9A12.89,12.89,0,0,0,353.13,72.4Z"/><path class="cls-2" d="M406.2,41.83h11.47L413.11,54h5.36l-3.65,9.84h-5.2l-9.26,24.28H388.9l9-24.28h-4.33L397.19,54h4.45Z"/><path class="cls-2" d="M457.84,56.47l-3.11,8.15-.44-.16a23.5,23.5,0,0,0-4.63-2,18.41,18.41,0,0,0-5.06-.59A13.66,13.66,0,0,0,435.87,65,13,13,0,0,0,431,72.73q-.76,3.75,1.5,5.85t7.11,2.1a36.43,36.43,0,0,0,9.76-1.9l-3.23,8.75a58.21,58.21,0,0,1-10.78,1.37q-8.29,0-12.75-4.72t-3-11.94q1.35-6.66,8.39-12.79t17.64-6.13A24.81,24.81,0,0,1,457.84,56.47Z"/><path class="cls-2" d="M475.71,31.26h11.48l-9.92,26.52a41.44,41.44,0,0,1,6.35-3.38,15,15,0,0,1,5.64-1.07q4.67,0,6.84,3.15T497.18,65a16.77,16.77,0,0,1-.93,2.94l-7.6,20.25H477.13l6.13-16.54a42.13,42.13,0,0,0,2.08-6.78,3.08,3.08,0,0,0-.58-2.82,3.69,3.69,0,0,0-2.88-1q-5.82,0-9.24,9.19l-6.73,18H454.28Z"/><polygon class="cls-2" points="355.85 20.95 339.71 30.31 359.56 34.61 355.85 20.95"/></svg>