<svg id="Layer_1" data-name="Layer 1" xmlns="http://www.w3.org/2000/svg" viewBox="0 0 500 116.04"><defs><style>.cls-1{fill:#0090ba;}.cls-2{fill:#fff;}</style></defs><title>1</title><path class="cls-1" d="M81.53,114.29h31l25.87-71.93s4.09-12,7.37-11.56l-28.72.06s-4.52-1.23-6.57,7.39Z"/><path class="cls-1" d="M213.14,2.89h-31L156.25,74.81s-3.28,11.91-6.57,11.5h27.92s4.52,1.23,6.57-7.39Z"/><path class="cls-1" d="M160,52.42l-11.49,29s-3.73,8.62-8.62-1.44-5.75-13.22-5.75-14.65S145,36.61,145,36.61c1.3-3.67,5.81-7.22,8.7,0Z"/><path class="cls-2" d="M224.43,38.15l13.84,32.41V38.15h6.92V81.22h-9.93L222.56,52.33V81.22h-6.86V38.15Z"/><path class="cls-2" d="M270.84,47.05a17.25,17.25,0,0,1,4.4.48,6.11,6.11,0,0,1,2.92,1.68,7.15,7.15,0,0,1,1.65,3.25,21.75,21.75,0,0,1,.51,5.14V81.22H258.19a7,7,0,0,1-3.32-.8,8.16,8.16,0,0,1-2.61-2.21,10.23,10.23,0,0,1-1.7-3.36,15.27,15.27,0,0,1,0-8.45,10.84,10.84,0,0,1,1.7-3.44,8.23,8.23,0,0,1,2.61-2.29,6.78,6.78,0,0,1,3.32-.83h13.33V56.91q0-2.66-.77-3.57a3.3,3.3,0,0,0-2.64-.91H254.56V47.05Zm-6.47,18a13.06,13.06,0,0,0-2.89.27,3.85,3.85,0,0,0-1.79.88,3.26,3.26,0,0,0-.91,1.57,9.27,9.27,0,0,0-.26,2.34q0,5.81,2.27,5.81h10.67V65.07Z"/><path class="cls-2" d="M312.66,47.05v5.38H295.24a2.94,2.94,0,0,0-2.3.91,4.68,4.68,0,0,0-.82,3.14q0,4,3.12,4h12a7.24,7.24,0,0,1,3.4.77,7.62,7.62,0,0,1,2.5,2.08,9.34,9.34,0,0,1,1.56,3.09,13.33,13.33,0,0,1,.54,3.86q0,5.17-2.1,8a7.26,7.26,0,0,1-6.24,2.85H285.65V75.94H305a2.07,2.07,0,0,0,1.81-1.07,6.28,6.28,0,0,0,.68-3.31,6,6,0,0,0-.68-3.25,2.09,2.09,0,0,0-1.81-1H292.57a7.85,7.85,0,0,1-3.57-.77,6.85,6.85,0,0,1-2.52-2.16A10.07,10.07,0,0,1,285,61.1a15.59,15.59,0,0,1-.51-4.08q0-4.69,2.16-7.33t6.64-2.64Z"/><path class="cls-2" d="M349.14,36.18v45H329.28a12.29,12.29,0,0,1-4.28-.67,6.56,6.56,0,0,1-2.92-2.11,9.4,9.4,0,0,1-1.67-3.7,23.88,23.88,0,0,1-.54-5.46V59a23.87,23.87,0,0,1,.54-5.46,9.42,9.42,0,0,1,1.67-3.7A6.56,6.56,0,0,1,325,47.72a12.29,12.29,0,0,1,4.28-.67h11.06V36.18ZM328.49,66.35a35.76,35.76,0,0,0,.28,5.09,6.85,6.85,0,0,0,1,2.91,3.2,3.2,0,0,0,2,1.31,14.27,14.27,0,0,0,3.18.29h5.45V52.43h-8.28a5,5,0,0,0-1.65.24,2.14,2.14,0,0,0-1.11.91,4.91,4.91,0,0,0-.63,1.79,17,17,0,0,0-.2,2.88Z"/><path class="cls-2" d="M374.84,47.05a17.25,17.25,0,0,1,4.4.48,6.11,6.11,0,0,1,2.92,1.68,7.15,7.15,0,0,1,1.65,3.25,21.75,21.75,0,0,1,.51,5.14V81.22H362.19a7,7,0,0,1-3.32-.8,8.16,8.16,0,0,1-2.61-2.21,10.23,10.23,0,0,1-1.7-3.36,15.27,15.27,0,0,1,0-8.45,10.84,10.84,0,0,1,1.7-3.44,8.23,8.23,0,0,1,2.61-2.29,6.78,6.78,0,0,1,3.32-.83h13.33V56.91q0-2.66-.77-3.57a3.3,3.3,0,0,0-2.64-.91H358.56V47.05Zm-6.47,18a13.06,13.06,0,0,0-2.89.27,3.85,3.85,0,0,0-1.79.88,3.26,3.26,0,0,0-.91,1.57,9.27,9.27,0,0,0-.26,2.34q0,5.81,2.27,5.81h10.67V65.07Z"/><path class="cls-2" d="M418.47,47.05V94.17L409.74,102V81.22H398.61a14,14,0,0,1-4.34-.59,6.43,6.43,0,0,1-2.92-1.89,8,8,0,0,1-1.65-3.44A23.08,23.08,0,0,1,389.2,70V58.24a22.21,22.21,0,0,1,.54-5.3,8.22,8.22,0,0,1,1.67-3.46,6.25,6.25,0,0,1,2.92-1.87,14.44,14.44,0,0,1,4.28-.56ZM397.88,70.5a8.37,8.37,0,0,0,.77,4.26,3,3,0,0,0,2.75,1.17h8.34V52.43h-6.47a13.17,13.17,0,0,0-2.61.21,3.47,3.47,0,0,0-1.65.77,3,3,0,0,0-.88,1.57,11,11,0,0,0-.26,2.61Z"/></svg>