<svg id="Layer_1" data-name="Layer 1" xmlns="http://www.w3.org/2000/svg" viewBox="0 0 500 116.04"><defs><style>.cls-1{fill:#c70a20;}.cls-2{fill:#e30e27;}.cls-3{fill:#f4102b;}.cls-4{fill:#dd0d25;}.cls-5{fill:#ba091d;}.cls-6{fill:#e90e28;}.cls-7{fill:#e80f28;}.cls-8{fill:#d80c24;}.cls-9{fill:#cb0b21;}.cls-10{fill:#c0091e;}.cls-11{fill:#ed0f29;}.cls-12{fill:#d20c23;}</style></defs><title>1</title><path class="cls-1" d="M410.41,39.77c-3.78,4.66-7.28,9-10.81,13.33-3.83,4.69-3.83,4.66-.56,9.73,4,6.24,8,12.5,12.32,19.19-4.23,0-8.08-.3-11.85.09s-5.73-1-7.36-4.19c-1.92-3.79-4.4-7.31-6.62-10.93-3.71,1.86-5.52,4.47-4.83,8.73.32,2,1,4.66-.36,5.92s-3.93.32-6,.37c-2.22.06-4.44-.05-6.66,0-1.27.05-1.6-.4-1.6-1.63q0-27.35,0-54.7c0-1.44.53-1.69,1.8-1.67,3.72.07,7.45.05,11.18,0,1.13,0,1.75.17,1.71,1.53-.25,10.76.54,21.55-.76,32.44,1.13-.66,1.43-1.86,2.11-2.74,3.74-4.8,7.46-9.63,11.19-14.44a2.3,2.3,0,0,1,2-1.09C400.18,39.79,405.06,39.77,410.41,39.77Z"/><path class="cls-2" d="M130.93,60.92c0-6.26.09-12.52-.05-18.78,0-2.06.6-2.57,2.52-2.41a40.55,40.55,0,0,0,6.18,0c1.68-.12,2.7.33,3,2.1a13.8,13.8,0,0,0,.63,1.78c.44,1.48.88,1.88,2.09.43,3.88-4.67,11.42-6.31,17.89-4,5.41,1.9,8.72,6.79,8.79,13.35.08,9,0,17.91.06,26.87,0,1.51-.48,1.87-1.9,1.83-3.4-.1-6.82-.13-10.22,0-1.81.07-2.45-.37-2.41-2.32.13-6.58.07-13.15,0-19.73a31,31,0,0,0-.39-5c-.48-2.81-1.91-4.24-4.18-4.45-2.89-.27-5.06.89-6.15,3.44a22.81,22.81,0,0,0-1.4,8.86c-.06,5.63-.08,11.25,0,16.88,0,1.68-.27,2.4-2.17,2.3-3.48-.17-7-.12-10.46,0-1.46,0-1.89-.4-1.87-1.86C131,73.76,130.93,67.34,130.93,60.92Z"/><path class="cls-3" d="M47.73,67.39c0,3.79,0,7.43,0,11.06,0,.79-.12,1.36-1,1.65-10,3.43-20,4.27-29.56-1.35C12.49,76,9.77,71.46,8.34,66.26a39.54,39.54,0,0,1-.15-21.35,23.9,23.9,0,0,1,21.75-18,39.79,39.79,0,0,1,18.37,2.86c1.33.54,1.87,1,1.19,2.55a76.57,76.57,0,0,0-3.12,7.94c-.53,1.63-1.14,1.86-2.64,1.14A27.48,27.48,0,0,0,35.83,39C29.47,38.09,25,40.8,23.08,46.93a27.85,27.85,0,0,0-.38,14.8c1.69,7.07,6.87,10,14.71,8.75C40.93,69.9,44.22,68.55,47.73,67.39Z"/><path class="cls-4" d="M181.42,68.83c4.84,1.75,9.49,3.34,14.47,3.26,1.73,0,4.14.5,4.63-1.8s-1.95-2.69-3.51-3.47c-3.19-1.57-6.61-2.6-9.69-4.44-5-3-6.57-7.54-5.81-13,.69-5,4.1-7.77,8.62-9.11,7.76-2.29,15.35-1.24,22.74,1.8.94.39,1.27.87.75,1.79a4.38,4.38,0,0,0-.2.43c-1,2.4-1.43,5.65-3.24,6.95s-4.52-1.29-7-1.67c-1.79-.27-3.55-.88-5.39-.65-1,.12-2.21.07-2.49,1.39s.7,2,1.74,2.49c2,.9,4.07,1.75,6.11,2.59a47.32,47.32,0,0,1,6.14,3.07c7,4.17,6.42,16.26,1.08,20.38A15.53,15.53,0,0,1,203.54,82a45.84,45.84,0,0,1-20.24-.94,2.22,2.22,0,0,1-1.93-2.64C181.52,75.29,181.42,72.14,181.42,68.83Z"/><path class="cls-5" d="M463.5,60.85c0-6.34.06-12.69,0-19,0-1.69.49-2.18,2.13-2.08a58.4,58.4,0,0,0,6.9,0,2,2,0,0,1,2.35,1.69c.27,1.07.69,2.11,1.06,3.15.23.65.18,1.62.91,1.8s1-.85,1.4-1.37c3.36-4.34,7.65-6.45,13.24-5.81,1.46.17,1.9.64,1.74,2.06-.4,3.54-.73,7.09-1,10.65-.08,1.17-.65,1.19-1.55,1.13a36.47,36.47,0,0,0-5-.12c-5.08.37-7.6,3-7.68,8.12q-.14,9.4,0,18.79c0,1.79-.45,2.31-2.24,2.23-3.32-.15-6.67-.17-10,0-2,.11-2.33-.64-2.31-2.42C463.56,73.38,463.5,67.11,463.5,60.85Z"/><path class="cls-6" d="M120.68,60.85c0,6.33,0,12.67,0,19,0,1.55-.26,2.27-2,2.2-3.56-.14-7.12-.08-10.69,0-1.25,0-1.83-.21-1.83-1.66q.08-19.48,0-39c0-1.41.5-1.71,1.78-1.68,3.64.07,7.29.1,10.92,0,1.5,0,1.86.45,1.85,1.88C120.64,48,120.68,54.44,120.68,60.85Z"/><path class="cls-7" d="M113.51,22.83c5.89,0,8.72,3.14,7.53,8.38a5.71,5.71,0,0,1-.38,1.11c-1.45,3.16-7.66,4.53-11.65,2.59-3.06-1.49-4.27-5.73-2.5-9C108,23.07,110.81,23,113.51,22.83Z"/><path class="cls-8" d="M261.94,50.94C258.4,38.2,247,35.2,237.61,44.43c-.78.77-1.24.93-1.6-.3-.22-.76-.67-1.46-.83-2.22-.37-1.83-1.43-2.31-3.22-2.19a70.18,70.18,0,0,1-7.61,0c-1.46-.06-1.87.4-1.87,1.86q.07,28.43,0,56.86c0,1.54.54,1.85,1.93,1.81,3.33-.09,6.67-.15,10,0,2.11.11,2.84-.42,2.75-2.68-.28-6.53.32-13.08-.61-19.57.85-.17,1,.4,1.34.69,7.91,7.07,19,4.65,23-5.19A34.07,34.07,0,0,0,261.94,50.94ZM247.58,67.57A4.39,4.39,0,0,1,243.27,71c-2.24.05-4.18-.78-5-2.92a21.4,21.4,0,0,1-.13-14.62c.75-2.22,2.64-3,4.92-2.92a4.46,4.46,0,0,1,4.46,3.23,22.83,22.83,0,0,1,.94,7.11A24.89,24.89,0,0,1,247.58,67.57Z"/><path class="cls-9" d="M356.14,53.25c-.09-7-4.2-12.14-11.07-13.49A40.37,40.37,0,0,0,322,42.17c-1.15.46-1.35,1-.77,2.13a63.28,63.28,0,0,1,2.85,6.51c.5,1.36,1,1.58,2.38,1a25.57,25.57,0,0,1,10.32-2.47c2.71,0,4.19,1.29,4.78,3.71.37,1.51,0,2.1-1.65,2.17-4.1.17-8.22.12-12.28,1.07-9.5,2.23-12.89,8.32-10.52,18a10.06,10.06,0,0,0,8,7.88c6.95,1.42,13.27.39,18.43-6.49.73,6.92,5.09,6.77,9.61,6.35a4.78,4.78,0,0,1,1.19,0c1.55.25,1.82-.52,1.81-1.9C356.15,71.16,356.25,62.21,356.14,53.25ZM341.79,65.47c0,4-2,6.49-5.52,6.93-2,.25-3.89,0-4.78-2.15a4.62,4.62,0,0,1,2.19-5.89c2.25-1.2,4.75-1.18,7.18-1.15C342.61,63.22,341.39,64.83,341.79,65.47Z"/><path class="cls-10" d="M455.06,55.5c-.46-7.9-5.42-13.92-12.92-15.66a29.19,29.19,0,0,0-12.73-.15,17.16,17.16,0,0,0-13.49,12,30.24,30.24,0,0,0-1.14,13.62c.74,6,3.23,11.26,8.76,14.19,9,4.76,18.3,4,27.6.73a1.77,1.77,0,0,0,1.34-1.94c-.06-2.92,0-5.83,0-9.15a32.43,32.43,0,0,1-13.21,3.25c-4.81.18-8.35-1.68-9.57-5.07-.6-1.67-.59-2.54,1.69-2.5,7.29.13,14.59,0,21.88.08,1.38,0,2-.23,1.93-1.8C455,60.58,455.21,58,455.06,55.5Zm-14.65.17c-1.58-.07-3.16,0-4.74,0a33.75,33.75,0,0,0-4,0c-2.34.29-2.18-.95-1.69-2.49a6.11,6.11,0,0,1,11.84.78C442,55.24,441.73,55.73,440.42,55.68Z"/><path class="cls-11" d="M97.65,58c-.66-9-6-15.86-14.33-18.07a25.26,25.26,0,0,0-16.09.87,17,17,0,0,0-9.17,8.53,23.77,23.77,0,0,0-2.31,11.27c0,9.16,3.08,15.52,9.63,19.37,5.26,3.09,11,3.24,16.81,2.19,7.29-1.32,12-5.72,14.35-12.65A29,29,0,0,0,97.65,58ZM81.94,68a5,5,0,0,1-5,3.92,5.27,5.27,0,0,1-5.41-3.8,19,19,0,0,1-1-7.31,19,19,0,0,1,.88-7c1-2.77,2.83-4.09,5.5-4A5.13,5.13,0,0,1,82,54,23.94,23.94,0,0,1,81.94,68Z"/><path class="cls-12" d="M310.45,63c-.15-2.21,0-4.44-.07-6.66-.34-7.78-4.47-13.73-11.34-16a26.8,26.8,0,0,0-17.07.07,16.36,16.36,0,0,0-9.28,7.7c-2.39,4.22-3,8.82-2.93,13.53.1,7.44,2.17,14.18,9.13,17.89,9,4.83,18.48,3.94,27.83.57.83-.3.93-.94.92-1.71,0-2.93,0-5.86,0-9.23a32.29,32.29,0,0,1-13.4,3.22c-4.62.14-8.25-1.79-9.36-5.07-.52-1.54-.72-2.57,1.67-2.52,7.29.16,14.59,0,21.89.09C309.94,64.92,310.56,64.59,310.45,63ZM295.2,55.72c-1.4-.14-2.84,0-4.25,0-1.66,0-3.31,0-5,0-.84,0-1.3-.13-1.17-1.18A6.22,6.22,0,0,1,290.4,49a6,6,0,0,1,6.49,4.34C297.37,54.87,297.33,55.93,295.2,55.72Z"/></svg>